<mxfile host="app.diagrams.net" modified="2024-05-26T19:33:56.009Z" agent="Mozilla/5.0 (Windows NT 10.0; Win64; x64) AppleWebKit/537.36 (KHTML, like Gecko) Chrome/124.0.0.0 Safari/537.36" etag="CbRi9kmq4VcUYhB2oYRe" version="24.4.8" type="device">
  <diagram name="Page-1" id="22VLPHBLLeuIhvIN_V5i">
    <mxGraphModel dx="1600" dy="1053" grid="1" gridSize="10" guides="1" tooltips="1" connect="1" arrows="1" fold="1" page="1" pageScale="1" pageWidth="850" pageHeight="1100" math="0" shadow="0">
      <root>
        <mxCell id="0" />
        <mxCell id="1" parent="0" />
        <mxCell id="kljRtqIGl1iEmk1v1EDj-1" value="Geometry Source" style="rounded=1;whiteSpace=wrap;html=1;fillColor=#f5f5f5;strokeColor=#666666;gradientColor=#b3b3b3;" vertex="1" parent="1">
          <mxGeometry width="120" height="70" as="geometry" />
        </mxCell>
        <mxCell id="kljRtqIGl1iEmk1v1EDj-2" value="" style="shape=flexArrow;endArrow=classic;html=1;rounded=0;fillColor=#f5f5f5;strokeColor=#666666;" edge="1" parent="1">
          <mxGeometry width="50" height="50" relative="1" as="geometry">
            <mxPoint x="130" y="34.5" as="sourcePoint" />
            <mxPoint x="170" y="34.5" as="targetPoint" />
          </mxGeometry>
        </mxCell>
        <mxCell id="kljRtqIGl1iEmk1v1EDj-3" value="ROOT &lt;br&gt;geometry &lt;br&gt;optimization" style="rounded=1;whiteSpace=wrap;html=1;fillColor=#dae8fc;strokeColor=#6c8ebf;gradientColor=#7ea6e0;" vertex="1" parent="1">
          <mxGeometry x="180" width="120" height="70" as="geometry" />
        </mxCell>
        <mxCell id="kljRtqIGl1iEmk1v1EDj-5" value="" style="shape=flexArrow;endArrow=classic;html=1;rounded=0;fillColor=#f5f5f5;strokeColor=#666666;" edge="1" parent="1">
          <mxGeometry width="50" height="50" relative="1" as="geometry">
            <mxPoint x="310" y="34.5" as="sourcePoint" />
            <mxPoint x="350" y="34.5" as="targetPoint" />
          </mxGeometry>
        </mxCell>
        <mxCell id="kljRtqIGl1iEmk1v1EDj-6" value="" style="shape=flexArrow;endArrow=classic;html=1;rounded=0;fillColor=#f5f5f5;strokeColor=#666666;" edge="1" parent="1">
          <mxGeometry width="50" height="50" relative="1" as="geometry">
            <mxPoint x="490" y="34.5" as="sourcePoint" />
            <mxPoint x="530" y="34.5" as="targetPoint" />
          </mxGeometry>
        </mxCell>
        <mxCell id="kljRtqIGl1iEmk1v1EDj-7" value="WebGL/Three.js&lt;br&gt;Optimization&lt;br&gt;Prettification" style="rounded=1;whiteSpace=wrap;html=1;fillColor=#e6d0de;strokeColor=#996185;gradientColor=#d5739d;" vertex="1" parent="1">
          <mxGeometry x="360" width="120" height="70" as="geometry" />
        </mxCell>
        <mxCell id="kljRtqIGl1iEmk1v1EDj-9" value="Render!" style="rounded=1;whiteSpace=wrap;html=1;fillColor=#d5e8d4;strokeColor=#82b366;gradientColor=#97d077;" vertex="1" parent="1">
          <mxGeometry x="540" width="120" height="70" as="geometry" />
        </mxCell>
      </root>
    </mxGraphModel>
  </diagram>
</mxfile>
